<?xml version="1.0" encoding="UTF-8"?>
<svg id="Layer_1" xmlns="http://www.w3.org/2000/svg" baseProfile="tiny" version="1.2" viewBox="0 0 1321.29 1640.52">
  <!-- Generator: Adobe Illustrator 30.6.0, SVG Export Plug-In . SVG Version: 2.1.4 Build 109)  -->
  <path d="M298.94,1217.28c-.34,13.55-4.39,35.16-15.03,41.54l-9.96-9.76c.12,15.72-2.56,32.98-8.55,46.9-1.42,3.31-3.78,6-6.58,8.84-5.1-3.83-7.9-8.15-11.6-13.77l-1.25,13.29c-1.58,16.85-6.01,44.48-18.06,55l-11.96-17.51c-2.91,23.63-6.94,45.58-15.79,66.78-2.02,4.84-4.5,8.29-8.57,12.53l-12.14-19.68c-2.96,23.59-8.42,45.58-17.57,66.83-2.07,4.81-4.54,8.35-7.89,12.78-2.17-2.34-3.63-4.13-4.55-6.29l-8.43-19.89c-4.57,20.38-8.5,39.24-15.49,58.12l-9.43,21.57c-1.61,3.68-4.14,6.23-7.32,9.12-5.11-11.27-7.72-21.73-11.17-33.94-6.12,23.4-12.52,45.77-21.36,67.87l-8.7,19.42c-2.61,5.82-6.18,10.94-10.5,15.69-4.85-16.28-5.69-31.8-6.78-47.96l-1.45-21.53c-10.78,29.06-20.48,56.31-34.14,82.81-2.94,5.7-6.12,10.27-10.53,14.49l-2.23-18.24-.75-10.04-1.15-23.96.25-109.37,1.06-33.93.82-19.67.92-16.04,1.02-17.01.95-15,1.02-15.97,1.1-17.97c5.08-62.56,12.02-124.29,23.27-186.25,4.5-24.79,9.81-48.37,18.46-71.6,5.87-15.75,14.32-29.28,25.4-41.68l23.47-23.45,20.11-19.05,35.86-35.85,13.1-14.15c12.55-13.55,55.06-64.41,49.5-74.54-4.13-7.53-11.8-12.47-19.23-16.74-17.21-9.89-33.33-19.56-48.89-32.09-19.22-15.49-37.39-22-62.05-19.04-4.36.52-7.17,6.69-8.52,10.12l-2.34,1.07c-7.62-18.09-2.22-32.01,14.73-40.51l8.26-4.14,4.31-11.31c3.86-10.12,12.22-16.95,20.92-23.09,28.5-20.12,71.31-19.37,105.13-12.51,12.24,2.48,23.58,5.36,36.22,5.8,27.05.94,27.11-6.03,36.99-24.93,14.64-28.01,22.88-57.72,25.51-89.26l1.22-14.66-.18-47.06-3.81-40.1c-2.21-23.22.08-45.77,10.32-66.96,8.4-17.39,18.83-32.89,30.64-48.26,15.03-19.54,30.32-37.83,47.18-55.68l17.07-18.07,21-21.98,23-23.98,24.11-25.16,86.73-86.74,24.13-23.08,12.02-11.06,13.99-12.93,10.11-9.16c34.78-31.52,70.1-61.66,107.99-89.6l28.24-18.98,13.93-6.61c-1.62,8.25-4.42,14.41-8.27,21.42-8.94,16.28-19.78,30.98-30.83,45.96l-19.68,25.45c-.03-.2-.39,1.65-.11,1.45l1.46-1.04,19.24-13.8,27.19-18.89c12.57-8.1,24.94-15.53,38.67-21.38l2.56.11c2.5.11-3.8,14.94-8.18,22.4-10.08,17.14-21.64,32.44-33.87,48.01l-20.77,26.45,22.31-12.89,26.21-12.87,3.33-.06c.63-.01.7,2.32.43,2.97l-4.98,11.92-19.21,28.9-27.42,34.52-1.24,1.34c-.23.25,1.52.27,1.77.25,8.06-3.76,15.17-6.5,24.73-8.45.81,3.71.31,7.08-1.69,10.31l-10.37,16.74-12.55,16.57-18.94,22.59-1.58,1.6c-.22.23-.25.69.07.65l2.53-.33,12.79-3.16c1.28-.32,4.24.29,5.31,1,4.17,2.75-15.79,28.06-24.18,36.68l-16.94,17.42c-.26.27-.92,1.76-1.01,2.05-.08.26.6.02.88-.09l2.13-.86,12.69-2.64c1.08-.23,3.87.74,4.75,1.28,4.55,2.8-12.65,24.69-20.42,32.75l-13.33,13.83-4.73,4.03c-.3.25-.92,1.32-1.1,1.65s1.22.63,1.53.42l1.53-1.05c5.28-1.68,11.23-3.22,17.06-2.84,2.09,3.1.62,7.46-1.19,10.7-5.56,9.97-12.73,18.26-20.45,26.69l-9.96,10.87c-.26.28-1.71,1.42-1.36,1.41l1.41-.05,1.67-.48c4.81-1.39,9.74-2.37,14.95-2.21,1.26,2.42,1.19,6.37-.13,9.05-7.93,16.02-20.08,28.61-32.67,41.21l-1.3,1.31c-.24.24,1.54.09,1.92.08l15.03-.41c.55,16.68-15.24,35.56-25.94,48.42,16.84,13.24,2.96,38.46-11.07,54.11,11.17,20.09,6.89,45.12-9.64,61.52,6.44,17.72,5.99,37.76-9.46,50.16,4.26,10.55,4.19,21.08.41,31.77s-12.36,7.35-12.16,8.25l.61,2.76,1.76,10.6c1.38,8.3-1.12,23.63-6.47,30.46-2.07,2.65-7.76,2.06-11.08.91l1.92,18.68c.73,7.14-2.37,14.52-5.15,20.67-3.57,7.9-15.78,1.21-14.85,4.93l.76,3.04c2,8.03,2.89,16.99,8.94,23.06l14.44,14.48c54.15,43.44,101.02,54.18,167.36,67.44l1.97.39,140.51,26.4,217.11,45.71,98.48,23.53,71.99,20.82,1.36.96,1.26.7,1.3.73,6.14,3.5.06,1.06-9.64-.27-139.89-23.01c-55.82-9.18-110.9-16.23-166.94-20.64l-14.06-1.11-12.92-.93-16.53-.84-24.06-1.01h-59.94s-33.07,1.03-33.07,1.03l-25.39.76c1.73,5.78-.41,10.75-5.12,14.05l39.95,32.94c42.22,34.81,85.33,67.91,130.14,99.73l140.27,99.62,64.47,45.58,23.04,18.01,4.6,4.85-.27,2.54c-13.1-4.13-24.08-9.51-35.54-16.2l-48.04-28.05-85.65-51.34-197.22-112.4-24-12.53c-38.1-19.89-76.71-37.58-116.48-54.19-49.66-20.73-92.89-32.21-146.43-36.49l-14.72-1.18-14.05-.88-16.53-.92-31.17-.46-.25,2.15c-.73,6.26-10.52,17.01-16.65,23.16l-1.5,1.51c-.41.41,1.18.76,2.12,1.18l6.92,3.1-.65,9.14c-6.36,12.84-15.39,22.81-26.77,31.41-.18.07-1.8.8-1.53.96l2.2,1.33c1.96,1.19,4.43,3.18,6.03,5.08-3.69,14.82-18.43,26.94-32.5,34.4,3.06,2.14,5.66,6.37,3.71,9.97-6.79,12.49-18.27,21.73-33.01,23.57-.6,7.45-3.01,13.85-8.08,19.44-12.69,13.97-29.52,23.24-48.75,24.21-2.8,14.84-7.8,25.31-17.77,36.39-8.41,9.35-20.66,8.8-20.62,7.16l-.07,2.86Z" fill="#fff"/>
</svg>