<?xml version="1.0" encoding="UTF-8"?>
<svg id="Logo" xmlns="http://www.w3.org/2000/svg" viewBox="0 0 360 360">
  <defs>
    <style>
      .cls-1 {
        fill: #231f20;
      }
    </style>
  </defs>
  <path class="cls-1" d="M255.75,117.16c-20.3,9.55-8.5,26.22,2.48,22.27,4.81-1.73,7.17-6.45,6.57-10.9-.38-2.78,3.26-4.16,4.98-1.95,4.61,5.93,6.24,20.73-14.09,25.14.5-.18.09-.04.18-.08-14.16,2.79-41.12-6.2-63.4,4.98-39.78,19.43-16.9,67.21,9.23,52.79,4.01-2.12,8.73-5.55,9.36-10.07,1.64-7.71-5.85-14.25-13.28-11.57-4.79,1.72-7.16,6.42-6.57,10.86.36,2.69-3.08,4.27-4.84,2.21-5.2-6.09-4.39-17.31,6.12-22.66,14.04-7.23,40.92-2.37,38.64,19.5-3.31,48.97-112.53,52.58-126.39,14.38-6.43-18.21.52-39.17,22.83-49.03,5.92,4.15,12.84,6.49,20.1,6.17,14.7-.42,12.34-15.05.98-15.84.65-.08-6.11-.25-15.09,1.1-26-44.77,69.71-84.52,84.33-22.27.92,3.9,6.61,3.7,7.2-.3,8.47-56.98-79.94-72.48-109.27-26.66-11.49,17.76-6.77,39,5.16,52-18.95,5.68-31.93,17.83-37.14,36.93-24.22,90.92,167.81,97.66,155.9-4.55-.42-3.41-1.16-6.43-2.15-9.11-.83-2.27.74-4.69,3.17-4.79,11.82-.46,23.57-3.14,33.55-12.55,23.14-21.9,4.75-55.78-18.55-45.99Z"/>
  <path class="cls-1" d="M180,317.43c-78.83,0-142.96-64.13-142.96-142.96S101.17,31.51,180,31.51s142.96,64.13,142.96,142.96-64.13,142.96-142.96,142.96ZM180,47.21c-70.17,0-127.26,57.09-127.26,127.26s57.09,127.26,127.26,127.26,127.26-57.09,127.26-127.26-57.09-127.26-127.26-127.26Z"/>
</svg>